<svg xmlns="http://www.w3.org/2000/svg" width="185" height="72" viewBox="0 0 185 72">
  <g id="그룹_116777" data-name="그룹 116777" transform="translate(-47.8 -29.283)">
    <g id="_플러스" data-name="+ 플러스">
      <rect id="area" width="21" height="21" transform="translate(129.8 55.283)" fill="#fff"/>
      <path id="합치기_34" data-name="합치기 34" d="M6.333,19V12.667H0V6.333H6.333V0h6.333V6.333H19v6.333H12.667V19Z" transform="translate(130.8 56.283)" fill="#e4e4e4"/>
    </g>
    <g id="_아이콘" data-name="+ 아이콘" transform="translate(46.784 22.005)">
      <path id="area-2" data-name="area" d="M0,1H72V73H0Z" transform="translate(1.016 6.278)" fill="red" opacity="0"/>
      <g id="_아이콘-2" data-name="+ 아이콘" transform="translate(10.016 14.762)">
        <path id="선_73" data-name="선 73" d="M0,16.5A1.5,1.5,0,0,1-1.5,15V0A1.5,1.5,0,0,1,0-1.5,1.5,1.5,0,0,1,1.5,0V15A1.5,1.5,0,0,1,0,16.5Z" transform="translate(26.5 27.5)" fill="#1e1c19"/>
        <path id="패스_61385" data-name="패스 61385" d="M14.386,15.385a5.006,5.006,0,0,1-5-5h1.08l-1.08,0a5,5,0,0,1,10,0v1.306l-.181.025a5,5,0,0,1-4.818,3.668Zm-2-5a2,2,0,1,0,2-2A2,2,0,0,0,12.385,10.386Z" transform="translate(12.048 7.115)" fill="#1e1c19"/>
        <path id="패스_61386" data-name="패스 61386" d="M9.115,37.616a1.493,1.493,0,0,1-.9-.3A22.755,22.755,0,0,1-.9,18.6a23.835,23.835,0,0,1,2.406-10.7A22.256,22.256,0,0,1,8.2-.07a1.5,1.5,0,1,1,1.8,2.4A19.518,19.518,0,0,0,2.1,18.6a19.821,19.821,0,0,0,7.914,16.313,1.5,1.5,0,0,1-.9,2.7Z" transform="translate(-0.6 -0.6)" fill="#3617ce"/>
        <path id="패스_61387" data-name="패스 61387" d="M12.526,27.935a1.493,1.493,0,0,1-.769-.213A16.133,16.133,0,0,1,6.183,22.2a14.49,14.49,0,0,1-2.071-7.424c0-5.132,2.787-9.741,7.646-12.646A1.5,1.5,0,1,1,13.3,4.706c-3.931,2.35-6.185,6.02-6.185,10.071A12.155,12.155,0,0,0,13.3,25.147a1.5,1.5,0,0,1-.772,2.787Z" transform="translate(4.972 2.081)" fill="#1e1c19"/>
        <path id="패스_61388" data-name="패스 61388" d="M17.18,27.292a1.5,1.5,0,0,1-.776-2.785c4.019-2.422,6.057-5.7,6.057-9.732A12.56,12.56,0,0,0,16.45,4.06,1.5,1.5,0,1,1,18,1.492a15.39,15.39,0,0,1,5.491,5.731,15.641,15.641,0,0,1,1.97,7.552,13.121,13.121,0,0,1-2.039,7.139,16.3,16.3,0,0,1-5.47,5.162A1.493,1.493,0,0,1,17.18,27.292Z" transform="translate(18.321 2.724)" fill="#1e1c19"/>
        <path id="패스_61389" data-name="패스 61389" d="M21.029,37.616a1.5,1.5,0,0,1-.9-2.7A19.811,19.811,0,0,0,28.013,18.6a19.783,19.783,0,0,0-7.9-16.282,1.5,1.5,0,1,1,1.8-2.4,22.245,22.245,0,0,1,6.7,7.983,23.871,23.871,0,0,1,2.406,10.7,24.012,24.012,0,0,1-2.4,10.716,22.163,22.163,0,0,1-6.689,8A1.493,1.493,0,0,1,21.029,37.616Z" transform="translate(23.487 -0.6)" fill="#3617ce"/>
      </g>
    </g>
    <g id="_아이콘-3" data-name="+ 아이콘" transform="translate(172.215 43.046)">
      <path id="area-3" data-name="area" d="M0,1H72V73H0Z" transform="translate(-11.415 -14.763)" fill="red" opacity="0"/>
      <path id="Stroke_3" data-name="Stroke 3" d="M48.4,40A6.78,6.78,0,0,0,55,33.053V6.947A6.78,6.78,0,0,0,48.4,0H6.6A6.78,6.78,0,0,0,0,6.947V33.053A6.78,6.78,0,0,0,6.6,40H48.4m0,3H6.6A9.368,9.368,0,0,1-.242,40.032,10.077,10.077,0,0,1-3,33.053V6.947A10.077,10.077,0,0,1-.242-.032,9.368,9.368,0,0,1,6.6-3H48.4A9.368,9.368,0,0,1,55.242-.032,10.077,10.077,0,0,1,58,6.947V33.053a10.077,10.077,0,0,1-2.758,6.979A9.368,9.368,0,0,1,48.4,43Z" transform="translate(-2.415 -5)"/>
      <g id="그룹_116671" data-name="그룹 116671" transform="translate(11.585 46.493)">
        <path id="Stroke_1" data-name="Stroke 1" d="M18,2H0A1.5,1.5,0,0,1-1.5.5,1.5,1.5,0,0,1,0-1H18a1.5,1.5,0,0,1,0,3Z" transform="translate(10.623 -0.5)"/>
        <path id="Stroke_1-2" data-name="Stroke 1" d="M5,2H0A1.5,1.5,0,0,1-1.5.5,1.5,1.5,0,0,1,0-1H5A1.5,1.5,0,0,1,5,2Z" transform="translate(0 -0.5)" fill="#3617ce"/>
      </g>
      <path id="Stroke_5" data-name="Stroke 5" d="M0,11.5a1.5,1.5,0,0,1-.685-.165A1.5,1.5,0,0,1-1.5,10V0A1.5,1.5,0,0,1-.688-1.333a1.5,1.5,0,0,1,1.557.11l7,4.976a1.5,1.5,0,0,1,.006,2.441l-7,5.024A1.5,1.5,0,0,1,0,11.5ZM1.5,2.907v4.17l2.919-2.1Z" transform="translate(22.085 9.631)" fill="#3617ce"/>
    </g>
    <path id="패스_64220" data-name="패스 64220" d="M4.3,12H2.75V6.017L.9,6.591V5.329l3.239-1.16H4.3Zm7.529-3.233a3.962,3.962,0,0,1-.671,2.481,2.344,2.344,0,0,1-1.966.859,2.36,2.36,0,0,1-1.955-.843,3.846,3.846,0,0,1-.693-2.417V7.408a3.91,3.91,0,0,1,.679-2.487,2.361,2.361,0,0,1,1.958-.849,2.363,2.363,0,0,1,1.955.841,3.834,3.834,0,0,1,.693,2.414ZM10.279,7.184a2.864,2.864,0,0,0-.266-1.417.9.9,0,0,0-.83-.444.883.883,0,0,0-.808.422A2.68,2.68,0,0,0,8.1,7.066v1.9a3.006,3.006,0,0,0,.26,1.422.887.887,0,0,0,.835.465.872.872,0,0,0,.822-.446,2.934,2.934,0,0,0,.263-1.366Zm7.588,1.583a3.962,3.962,0,0,1-.671,2.481,2.344,2.344,0,0,1-1.966.859,2.36,2.36,0,0,1-1.955-.843,3.846,3.846,0,0,1-.693-2.417V7.408a3.91,3.91,0,0,1,.679-2.487,2.361,2.361,0,0,1,1.958-.849,2.363,2.363,0,0,1,1.955.841,3.834,3.834,0,0,1,.693,2.414ZM16.315,7.184a2.864,2.864,0,0,0-.266-1.417.9.9,0,0,0-.83-.444.883.883,0,0,0-.808.422,2.68,2.68,0,0,0-.277,1.32v1.9a3.006,3.006,0,0,0,.26,1.422.887.887,0,0,0,.835.465.872.872,0,0,0,.822-.446,2.934,2.934,0,0,0,.263-1.366Zm3.845-1,.048.65a2.042,2.042,0,0,1,1.67-.757,1.55,1.55,0,0,1,1.542.886,2,2,0,0,1,1.746-.886,1.733,1.733,0,0,1,1.407.551,2.531,2.531,0,0,1,.462,1.657V12H25.477V8.294a1.107,1.107,0,0,0-.193-.722.857.857,0,0,0-.682-.228.969.969,0,0,0-.967.666L23.64,12H22.088V8.3a1.093,1.093,0,0,0-.2-.73.865.865,0,0,0-.677-.226,1.006,1.006,0,0,0-.956.548V12H18.7V6.188ZM33.189,9.148a3.519,3.519,0,0,1-.6,2.178,1.975,1.975,0,0,1-1.665.781,1.814,1.814,0,0,1-1.509-.725l-.07.618h-1.4V3.75H29.5V6.709a1.768,1.768,0,0,1,1.413-.628,1.991,1.991,0,0,1,1.668.781,3.524,3.524,0,0,1,.6,2.2Zm-1.552-.113a2.312,2.312,0,0,0-.279-1.286.944.944,0,0,0-.833-.406A1.024,1.024,0,0,0,29.5,7.95v2.293a1.038,1.038,0,0,0,1.031.612.958.958,0,0,0,.988-.741A3.824,3.824,0,0,0,31.637,9.035Zm7.465.113a3.485,3.485,0,0,1-.61,2.151,1.955,1.955,0,0,1-1.646.808,1.811,1.811,0,0,1-1.423-.612v2.739H33.87V6.188H35.31l.054.569a1.824,1.824,0,0,1,1.472-.677,1.968,1.968,0,0,1,1.67.795,3.58,3.58,0,0,1,.6,2.191Zm-1.552-.113a2.287,2.287,0,0,0-.287-1.251.936.936,0,0,0-.835-.44,1.016,1.016,0,0,0-1,.559v2.379a1.034,1.034,0,0,0,1.015.575Q37.549,10.856,37.549,9.035Zm5.386,1.359a.5.5,0,0,0-.282-.448,3.2,3.2,0,0,0-.905-.293q-2.073-.435-2.073-1.762A1.6,1.6,0,0,1,40.317,6.6,2.589,2.589,0,0,1,42,6.081a2.787,2.787,0,0,1,1.77.521,1.642,1.642,0,0,1,.663,1.354H42.876a.751.751,0,0,0-.215-.551.909.909,0,0,0-.671-.218.929.929,0,0,0-.607.177.56.56,0,0,0-.215.451.478.478,0,0,0,.244.416,2.514,2.514,0,0,0,.824.274,6.734,6.734,0,0,1,.978.26,1.606,1.606,0,0,1,1.23,1.563,1.516,1.516,0,0,1-.682,1.286A2.943,2.943,0,0,1,42,12.107a3.073,3.073,0,0,1-1.3-.26,2.176,2.176,0,0,1-.889-.714,1.66,1.66,0,0,1-.322-.98h1.472a.81.81,0,0,0,.306.634,1.214,1.214,0,0,0,.763.22,1.124,1.124,0,0,0,.674-.169A.526.526,0,0,0,42.935,10.394Z" transform="translate(60.8 85.283)"/>
  </g>
</svg>
