<svg xmlns="http://www.w3.org/2000/svg" width="185" height="72" viewBox="0 0 185 72">
  <g id="그룹_116777" data-name="그룹 116777" transform="translate(-47.8 -29.283)">
    <g id="_플러스" data-name="+ 플러스">
      <rect id="area" width="21" height="21" transform="translate(129.8 55.283)" fill="#fff"/>
      <path id="합치기_34" data-name="합치기 34" d="M6.333,19V12.667H0V6.333H6.333V0h6.333V6.333H19v6.333H12.667V19Z" transform="translate(130.8 56.283)" fill="#e4e4e4"/>
    </g>
    <g id="_아이콘" data-name="+ 아이콘" transform="translate(46.784 22.005)">
      <path id="area-2" data-name="area" d="M0,1H72V73H0Z" transform="translate(1.016 6.278)" fill="red" opacity="0"/>
      <g id="_아이콘-2" data-name="+ 아이콘" transform="translate(10.016 14.762)">
        <line id="선_73" data-name="선 73" y2="15" transform="translate(26.5 27.5)" fill="none" stroke="#1e1c19" stroke-linecap="round" stroke-miterlimit="10" stroke-width="3"/>
        <path id="패스_61385" data-name="패스 61385" d="M17.885,10.385s0,0,0,0h0a3.5,3.5,0,0,1-7,0s0,0,0,0a3.5,3.5,0,0,1,7,0Z" transform="translate(12.048 7.115)" fill="none" stroke="#1e1c19" stroke-linecap="round" stroke-miterlimit="10" stroke-width="3"/>
        <path id="패스_61386" data-name="패스 61386" d="M9.1,1.131A21.118,21.118,0,0,0,.6,18.6,21.218,21.218,0,0,0,9.116,36.116" transform="translate(-0.6 -0.6)" fill="none" stroke="#3617ce" stroke-linecap="round" stroke-miterlimit="10" stroke-width="3"/>
        <path id="패스_61387" data-name="패스 61387" d="M12.527,26.434A13.679,13.679,0,0,1,5.612,14.777c0-4.756,2.652-8.81,6.915-11.358" transform="translate(4.972 2.081)" fill="none" stroke="#1e1c19" stroke-linecap="round" stroke-miterlimit="10" stroke-width="3"/>
        <path id="패스_61388" data-name="패스 61388" d="M17.225,2.776a14.135,14.135,0,0,1,6.736,12c0,4.756-2.554,8.468-6.783,11.017" transform="translate(18.321 2.724)" fill="none" stroke="#1e1c19" stroke-linecap="round" stroke-miterlimit="10" stroke-width="3"/>
        <path id="패스_61389" data-name="패스 61389" d="M21.028,36.116A21.194,21.194,0,0,0,29.513,18.6a21.146,21.146,0,0,0-8.5-17.483" transform="translate(23.487 -0.6)" fill="none" stroke="#3617ce" stroke-linecap="round" stroke-miterlimit="10" stroke-width="3"/>
      </g>
    </g>
    <g id="_아이콘-3" data-name="+ 아이콘" transform="translate(172.215 43.046)">
      <path id="area-3" data-name="area" d="M0,1H72V73H0Z" transform="translate(-11.415 -14.763)" fill="red" opacity="0"/>
      <g id="Stroke_3" data-name="Stroke 3" transform="translate(-2.415 -4.763)" fill="none" stroke-miterlimit="10">
        <path d="M48.4,40H6.6A6.78,6.78,0,0,1,0,33.053V6.947A6.78,6.78,0,0,1,6.6,0H48.4A6.78,6.78,0,0,1,55,6.947V33.053A6.78,6.78,0,0,1,48.4,40Z" stroke="none"/>
        <path d="M 48.39955902099609 40 C 52.04581451416016 40 55 36.88988876342773 55 33.05292892456055 L 55 6.947073459625244 C 55 3.110130548477173 52.04581451416016 1.9073486328125e-06 48.39955902099609 1.9073486328125e-06 L 6.600442886352539 1.9073486328125e-06 C 2.954200029373169 1.9073486328125e-06 0 3.110130548477173 0 6.947073459625244 L 0 33.05292892456055 C 0 36.88988876342773 2.954200029373169 40 6.600442886352539 40 L 48.39955902099609 40 M 48.39955902099609 43 L 6.600442886352539 43 C 4.006514072418213 43 1.576457142829895 41.94580078125 -0.2420857101678848 40.0316162109375 C -2.020557165145874 38.15960311889648 -3 35.68118667602539 -3 33.05292892456055 L -3 6.947073459625244 C -3 4.318816184997559 -2.020557165145874 1.840416193008423 -0.2420857101678848 -0.03159809112548828 C 1.576457142829895 -1.94579803943634 4.006514072418213 -2.999998092651367 6.600442886352539 -2.999998092651367 L 48.39955902099609 -2.999998092651367 C 50.99348449707031 -2.999998092651367 53.42354202270508 -1.94579803943634 55.24208450317383 -0.03159809112548828 C 57.02055740356445 1.840416193008423 58 4.318816184997559 58 6.947073459625244 L 58 33.05292892456055 C 58 35.68118667602539 57.02055740356445 38.15960311889648 55.24208450317383 40.03160095214844 C 53.42354202270508 41.94580078125 50.99348449707031 43 48.39955902099609 43 Z" stroke="none" fill="#000"/>
      </g>
      <g id="그룹_116671" data-name="그룹 116671" transform="translate(11.585 46.493)">
        <path id="Stroke_1" data-name="Stroke 1" d="M18,.5H0" transform="translate(10.623 -0.5)" fill="none" stroke="#000" stroke-linecap="round" stroke-miterlimit="10" stroke-width="3"/>
        <path id="Stroke_1-2" data-name="Stroke 1" d="M5,.5H0" transform="translate(0 -0.5)" fill="none" stroke="#3617ce" stroke-linecap="round" stroke-miterlimit="10" stroke-width="3"/>
      </g>
      <path id="패스_64219" data-name="패스 64219" d="M-4.514-4.164A5.1,5.1,0,0,1-5.4-1.02,2.843,2.843,0,0,1-7.8.156,2.437,2.437,0,0,1-9.709-.7V3.25h-2.633v-11.7h2.461l.078.781a2.437,2.437,0,0,1,1.992-.937,2.866,2.866,0,0,1,2.43,1.152,5.16,5.16,0,0,1,.867,3.168Zm-2.633-.164q0-2.25-1.312-2.25a1.239,1.239,0,0,0-1.25.672v3.328a1.279,1.279,0,0,0,1.266.7q1.258,0,1.3-2.172Zm3.061.023a4.989,4.989,0,0,1,.492-2.254A3.52,3.52,0,0,1-2.18-8.078,4.259,4.259,0,0,1-.016-8.609,3.887,3.887,0,0,1,2.977-7.434a4.512,4.512,0,0,1,1.094,3.2v.094A4.378,4.378,0,0,1,2.973-1,3.9,3.9,0,0,1,0,.156,3.942,3.942,0,0,1-2.9-.926a4.232,4.232,0,0,1-1.18-2.934Zm2.633.164a3.145,3.145,0,0,0,.367,1.719A1.223,1.223,0,0,0,0-1.875q1.406,0,1.438-2.164V-4.3q0-2.273-1.453-2.273-1.32,0-1.43,1.961Zm14.131-.023a5.1,5.1,0,0,1-.887,3.145A2.843,2.843,0,0,1,9.4.156,2.437,2.437,0,0,1,7.483-.7V3.25H4.85v-11.7H7.311l.078.781a2.437,2.437,0,0,1,1.992-.937,2.866,2.866,0,0,1,2.43,1.152,5.16,5.16,0,0,1,.867,3.168Zm-2.633-.164q0-2.25-1.313-2.25a1.239,1.239,0,0,0-1.25.672v3.328a1.279,1.279,0,0,0,1.266.7q1.258,0,1.3-2.172Z" transform="translate(25.585 19.237)" fill="#3617ce"/>
    </g>
    <path id="패스_64220" data-name="패스 64220" d="M.763,8.154,1.214,4.18H5.6V5.474H2.487L2.293,7.155a2.461,2.461,0,0,1,1.176-.3,2.254,2.254,0,0,1,1.751.693,2.768,2.768,0,0,1,.634,1.939,2.835,2.835,0,0,1-.32,1.356,2.256,2.256,0,0,1-.916.929,2.859,2.859,0,0,1-1.407.33A3.036,3.036,0,0,1,1.9,11.82a2.334,2.334,0,0,1-.959-.808A2.2,2.2,0,0,1,.564,9.825H2.1a1.147,1.147,0,0,0,.341.76,1.081,1.081,0,0,0,.765.271.954.954,0,0,0,.811-.379A1.754,1.754,0,0,0,4.3,9.406a1.451,1.451,0,0,0-.328-1.021,1.2,1.2,0,0,0-.929-.354,1.344,1.344,0,0,0-.9.29L2,8.46Zm11.069.612a3.962,3.962,0,0,1-.671,2.481,2.344,2.344,0,0,1-1.966.859,2.36,2.36,0,0,1-1.955-.843,3.846,3.846,0,0,1-.693-2.417V7.408a3.91,3.91,0,0,1,.679-2.487,2.361,2.361,0,0,1,1.958-.849,2.363,2.363,0,0,1,1.955.841,3.834,3.834,0,0,1,.693,2.414ZM10.279,7.184a2.864,2.864,0,0,0-.266-1.417.9.9,0,0,0-.83-.444.883.883,0,0,0-.808.422A2.68,2.68,0,0,0,8.1,7.066v1.9a3.006,3.006,0,0,0,.26,1.422.887.887,0,0,0,.835.465.872.872,0,0,0,.822-.446,2.934,2.934,0,0,0,.263-1.366Zm7.588,1.583a3.962,3.962,0,0,1-.671,2.481,2.344,2.344,0,0,1-1.966.859,2.36,2.36,0,0,1-1.955-.843,3.846,3.846,0,0,1-.693-2.417V7.408a3.91,3.91,0,0,1,.679-2.487,2.361,2.361,0,0,1,1.958-.849,2.363,2.363,0,0,1,1.955.841,3.834,3.834,0,0,1,.693,2.414ZM16.315,7.184a2.864,2.864,0,0,0-.266-1.417.9.9,0,0,0-.83-.444.883.883,0,0,0-.808.422,2.68,2.68,0,0,0-.277,1.32v1.9a3.006,3.006,0,0,0,.26,1.422.887.887,0,0,0,.835.465.872.872,0,0,0,.822-.446,2.934,2.934,0,0,0,.263-1.366Zm3.845-1,.048.65a2.042,2.042,0,0,1,1.67-.757,1.55,1.55,0,0,1,1.542.886,2,2,0,0,1,1.746-.886,1.733,1.733,0,0,1,1.407.551,2.531,2.531,0,0,1,.462,1.657V12H25.477V8.294a1.107,1.107,0,0,0-.193-.722.857.857,0,0,0-.682-.228.969.969,0,0,0-.967.666L23.64,12H22.088V8.3a1.093,1.093,0,0,0-.2-.73.865.865,0,0,0-.677-.226,1.006,1.006,0,0,0-.956.548V12H18.7V6.188ZM33.189,9.148a3.519,3.519,0,0,1-.6,2.178,1.975,1.975,0,0,1-1.665.781,1.814,1.814,0,0,1-1.509-.725l-.07.618h-1.4V3.75H29.5V6.709a1.768,1.768,0,0,1,1.413-.628,1.991,1.991,0,0,1,1.668.781,3.524,3.524,0,0,1,.6,2.2Zm-1.552-.113a2.312,2.312,0,0,0-.279-1.286.944.944,0,0,0-.833-.406A1.024,1.024,0,0,0,29.5,7.95v2.293a1.038,1.038,0,0,0,1.031.612.958.958,0,0,0,.988-.741A3.824,3.824,0,0,0,31.637,9.035Zm7.465.113a3.485,3.485,0,0,1-.61,2.151,1.955,1.955,0,0,1-1.646.808,1.811,1.811,0,0,1-1.423-.612v2.739H33.87V6.188H35.31l.054.569a1.824,1.824,0,0,1,1.472-.677,1.968,1.968,0,0,1,1.67.795,3.58,3.58,0,0,1,.6,2.191Zm-1.552-.113a2.287,2.287,0,0,0-.287-1.251.936.936,0,0,0-.835-.44,1.016,1.016,0,0,0-1,.559v2.379a1.034,1.034,0,0,0,1.015.575Q37.549,10.856,37.549,9.035Zm5.386,1.359a.5.5,0,0,0-.282-.448,3.2,3.2,0,0,0-.905-.293q-2.073-.435-2.073-1.762A1.6,1.6,0,0,1,40.317,6.6,2.589,2.589,0,0,1,42,6.081a2.787,2.787,0,0,1,1.77.521,1.642,1.642,0,0,1,.663,1.354H42.876a.751.751,0,0,0-.215-.551.909.909,0,0,0-.671-.218.929.929,0,0,0-.607.177.56.56,0,0,0-.215.451.478.478,0,0,0,.244.416,2.514,2.514,0,0,0,.824.274,6.734,6.734,0,0,1,.978.26,1.606,1.606,0,0,1,1.23,1.563,1.516,1.516,0,0,1-.682,1.286A2.943,2.943,0,0,1,42,12.107a3.073,3.073,0,0,1-1.3-.26,2.176,2.176,0,0,1-.889-.714,1.66,1.66,0,0,1-.322-.98h1.472a.81.81,0,0,0,.306.634,1.214,1.214,0,0,0,.763.22,1.124,1.124,0,0,0,.674-.169A.526.526,0,0,0,42.935,10.394Z" transform="translate(60.8 85.283)"/>
  </g>
</svg>
